<svg width="95" height="32" viewBox="0 0 95 32" fill="none" xmlns="http://www.w3.org/2000/svg">
<rect width="95" height="32" rx="16" fill="white"/>
<path d="M14.656 20.144C13.384 20.144 12.396 19.804 11.692 19.124C10.988 18.436 10.636 17.356 10.636 15.884C10.636 14.916 10.8 14.12 11.128 13.496C11.464 12.864 11.944 12.396 12.568 12.092C13.2 11.78 13.956 11.624 14.836 11.624C15.364 11.624 15.86 11.684 16.324 11.804C16.788 11.924 17.196 12.108 17.548 12.356C17.908 12.596 18.188 12.9 18.388 13.268C18.588 13.636 18.688 14.072 18.688 14.576H17.08C17.08 14.312 17.02 14.08 16.9 13.88C16.788 13.672 16.628 13.5 16.42 13.364C16.22 13.22 15.988 13.116 15.724 13.052C15.46 12.98 15.18 12.944 14.884 12.944C14.444 12.944 14.056 13.004 13.72 13.124C13.392 13.236 13.116 13.412 12.892 13.652C12.676 13.884 12.512 14.176 12.4 14.528C12.296 14.88 12.244 15.292 12.244 15.764V16.016C12.244 16.664 12.336 17.196 12.52 17.612C12.704 18.028 12.98 18.336 13.348 18.536C13.724 18.728 14.188 18.824 14.74 18.824C15.212 18.824 15.624 18.752 15.976 18.608C16.336 18.464 16.616 18.256 16.816 17.984C17.024 17.704 17.128 17.364 17.128 16.964V16.88H14.5V15.584H18.688V20H17.572L17.44 19.088C17.2 19.328 16.944 19.528 16.672 19.688C16.4 19.84 16.1 19.952 15.772 20.024C15.444 20.104 15.072 20.144 14.656 20.144ZM19.9593 20V11.768H26.3793V13.1H21.5193V15.128H25.8513V16.46H21.5193V18.668H26.4513V20H19.9593ZM29.5578 20V13.112H26.9298V11.768H33.7578V13.112H31.1178V20H29.5578ZM40.1939 20.144C39.3379 20.144 38.5979 19.992 37.9739 19.688C37.3499 19.376 36.8699 18.904 36.5339 18.272C36.2059 17.64 36.0419 16.844 36.0419 15.884C36.0419 14.916 36.2059 14.12 36.5339 13.496C36.8699 12.864 37.3499 12.396 37.9739 12.092C38.5979 11.78 39.3379 11.624 40.1939 11.624C41.0579 11.624 41.7979 11.78 42.4139 12.092C43.0379 12.396 43.5139 12.864 43.8419 13.496C44.1779 14.12 44.3459 14.916 44.3459 15.884C44.3459 16.844 44.1779 17.64 43.8419 18.272C43.5139 18.904 43.0379 19.376 42.4139 19.688C41.7979 19.992 41.0579 20.144 40.1939 20.144ZM40.1939 18.824C40.6099 18.824 40.9739 18.764 41.2859 18.644C41.6059 18.524 41.8739 18.348 42.0899 18.116C42.3059 17.876 42.4699 17.584 42.5819 17.24C42.6939 16.888 42.7499 16.484 42.7499 16.028V15.764C42.7499 15.3 42.6939 14.892 42.5819 14.54C42.4699 14.188 42.3059 13.896 42.0899 13.664C41.8739 13.424 41.6059 13.244 41.2859 13.124C40.9739 13.004 40.6099 12.944 40.1939 12.944C39.7779 12.944 39.4099 13.004 39.0899 13.124C38.7779 13.244 38.5139 13.424 38.2979 13.664C38.0819 13.896 37.9179 14.188 37.8059 14.54C37.7019 14.892 37.6499 15.3 37.6499 15.764V16.028C37.6499 16.484 37.7019 16.888 37.8059 17.24C37.9179 17.584 38.0819 17.876 38.2979 18.116C38.5139 18.348 38.7779 18.524 39.0899 18.644C39.4099 18.764 39.7779 18.824 40.1939 18.824ZM45.3206 20V11.768H51.2366V13.1H46.8806V15.308H50.8046V16.64H46.8806V20H45.3206ZM52.1531 20V11.768H58.0691V13.1H53.7131V15.308H57.6371V16.64H53.7131V20H52.1531ZM60.2447 20V19.604C60.2447 19.244 60.3087 18.916 60.4367 18.62C60.5647 18.324 60.7367 18.056 60.9527 17.816C61.1687 17.568 61.4087 17.336 61.6727 17.12C61.9447 16.896 62.2167 16.684 62.4887 16.484C62.8247 16.236 63.1407 15.988 63.4367 15.74C63.7327 15.484 63.9727 15.212 64.1567 14.924C64.3407 14.628 64.4327 14.3 64.4327 13.94C64.4327 13.772 64.3927 13.604 64.3127 13.436C64.2327 13.268 64.1007 13.128 63.9167 13.016C63.7407 12.904 63.5007 12.848 63.1967 12.848C62.8927 12.848 62.6407 12.9 62.4407 13.004C62.2407 13.1 62.0887 13.24 61.9847 13.424C61.8887 13.608 61.8407 13.836 61.8407 14.108V14.6H60.3767C60.3687 14.56 60.3607 14.5 60.3527 14.42C60.3447 14.34 60.3407 14.24 60.3407 14.12C60.3407 13.528 60.4727 13.052 60.7367 12.692C61.0087 12.324 61.3647 12.056 61.8047 11.888C62.2527 11.712 62.7367 11.624 63.2567 11.624C63.8007 11.624 64.2447 11.704 64.5887 11.864C64.9407 12.024 65.2127 12.228 65.4047 12.476C65.6047 12.724 65.7407 12.988 65.8127 13.268C65.8927 13.548 65.9327 13.804 65.9327 14.036C65.9327 14.42 65.8647 14.772 65.7287 15.092C65.6007 15.404 65.4207 15.7 65.1887 15.98C64.9567 16.252 64.6807 16.516 64.3607 16.772C64.0487 17.02 63.7127 17.272 63.3527 17.528C63.1687 17.656 62.9887 17.784 62.8127 17.912C62.6367 18.04 62.4807 18.168 62.3447 18.296C62.2167 18.424 62.1167 18.552 62.0447 18.68H65.9807V20H60.2447ZM69.5227 20.144C69.0747 20.144 68.6747 20.08 68.3227 19.952C67.9707 19.816 67.6707 19.588 67.4227 19.268C67.1747 18.948 66.9867 18.516 66.8587 17.972C66.7307 17.42 66.6667 16.724 66.6667 15.884C66.6667 15.044 66.7307 14.352 66.8587 13.808C66.9867 13.256 67.1747 12.82 67.4227 12.5C67.6707 12.18 67.9707 11.956 68.3227 11.828C68.6747 11.692 69.0747 11.624 69.5227 11.624C69.9707 11.624 70.3667 11.692 70.7107 11.828C71.0627 11.956 71.3627 12.18 71.6107 12.5C71.8587 12.82 72.0467 13.256 72.1747 13.808C72.3027 14.352 72.3667 15.044 72.3667 15.884C72.3667 16.724 72.3027 17.42 72.1747 17.972C72.0467 18.516 71.8587 18.948 71.6107 19.268C71.3627 19.588 71.0627 19.816 70.7107 19.952C70.3667 20.08 69.9707 20.144 69.5227 20.144ZM69.5227 18.944C69.8987 18.944 70.1787 18.844 70.3627 18.644C70.5547 18.436 70.6827 18.132 70.7467 17.732C70.8187 17.324 70.8547 16.82 70.8547 16.22V15.596C70.8547 14.98 70.8187 14.468 70.7467 14.06C70.6827 13.644 70.5547 13.336 70.3627 13.136C70.1787 12.928 69.8987 12.824 69.5227 12.824C69.1547 12.824 68.8707 12.928 68.6707 13.136C68.4787 13.336 68.3467 13.64 68.2747 14.048C68.2107 14.448 68.1787 14.952 68.1787 15.56V16.184C68.1787 16.792 68.2107 17.304 68.2747 17.72C68.3467 18.128 68.4787 18.436 68.6707 18.644C68.8707 18.844 69.1547 18.944 69.5227 18.944ZM74.7211 20L80.7451 11.768H81.9091L75.8611 20H74.7211ZM75.5131 15.956C75.1131 15.956 74.7651 15.892 74.4691 15.764C74.1731 15.628 73.9451 15.404 73.7851 15.092C73.6331 14.78 73.5571 14.348 73.5571 13.796C73.5571 13.236 73.6331 12.8 73.7851 12.488C73.9451 12.176 74.1731 11.956 74.4691 11.828C74.7651 11.692 75.1131 11.624 75.5131 11.624C75.9211 11.624 76.2691 11.692 76.5571 11.828C76.8451 11.956 77.0651 12.176 77.2171 12.488C77.3771 12.8 77.4571 13.236 77.4571 13.796C77.4571 14.348 77.3771 14.784 77.2171 15.104C77.0651 15.416 76.8451 15.636 76.5571 15.764C76.2691 15.892 75.9211 15.956 75.5131 15.956ZM75.5131 15.068C75.8411 15.068 76.0571 14.96 76.1611 14.744C76.2651 14.528 76.3171 14.236 76.3171 13.868V13.712C76.3171 13.472 76.2931 13.264 76.2451 13.088C76.2051 12.904 76.1251 12.764 76.0051 12.668C75.8931 12.564 75.7291 12.512 75.5131 12.512C75.1931 12.512 74.9771 12.624 74.8651 12.848C74.7611 13.064 74.7091 13.352 74.7091 13.712V13.868C74.7091 14.236 74.7611 14.528 74.8651 14.744C74.9771 14.96 75.1931 15.068 75.5131 15.068ZM81.0811 20.144C80.6811 20.144 80.3331 20.08 80.0371 19.952C79.7491 19.816 79.5251 19.592 79.3651 19.28C79.2131 18.968 79.1371 18.536 79.1371 17.984C79.1371 17.424 79.2131 16.988 79.3651 16.676C79.5251 16.364 79.7491 16.144 80.0371 16.016C80.3331 15.88 80.6811 15.812 81.0811 15.812C81.4891 15.812 81.8371 15.88 82.1251 16.016C82.4211 16.144 82.6451 16.364 82.7971 16.676C82.9491 16.988 83.0251 17.424 83.0251 17.984C83.0251 18.536 82.9491 18.972 82.7971 19.292C82.6451 19.604 82.4211 19.824 82.1251 19.952C81.8371 20.08 81.4891 20.144 81.0811 20.144ZM81.0811 19.256C81.4091 19.256 81.6251 19.148 81.7291 18.932C81.8331 18.708 81.8851 18.412 81.8851 18.044V17.9C81.8851 17.66 81.8611 17.452 81.8131 17.276C81.7731 17.092 81.6971 16.952 81.5851 16.856C81.4731 16.752 81.3051 16.7 81.0811 16.7C80.7611 16.7 80.5491 16.812 80.4451 17.036C80.3411 17.252 80.2891 17.54 80.2891 17.9V18.044C80.2891 18.412 80.3411 18.708 80.4451 18.932C80.5491 19.148 80.7611 19.256 81.0811 19.256Z" fill="#1D1D1D"/>
</svg>
